HIERARCHY
ROOT joint_Root
{
	OFFSET 0.0 0.0 0.0
	CHANNELS 6 Xposition Yposition Zposition Zrotation Xrotation Yrotation 
	JOINT Hips
	{
		OFFSET 4.5925 91.4895 -427.239
		CHANNELS 6 Xposition Yposition Zposition Zrotation Xrotation Yrotation 
		JOINT Spine
		{
			OFFSET 15.7357 0.0 0.0
			CHANNELS 6 Xposition Yposition Zposition Zrotation Xrotation Yrotation 
			JOINT Chest
			{
				OFFSET 8.98455 -0.406207 0.0
				CHANNELS 6 Xposition Yposition Zposition Zrotation Xrotation Yrotation 
				JOINT Neck
				{
					OFFSET 16.3773 0.0 0.0
					CHANNELS 6 Xposition Yposition Zposition Zrotation Xrotation Yrotation 
					JOINT Head
					{
						OFFSET 6.45672 0.0 0.0
						CHANNELS 6 Xposition Yposition Zposition Zrotation Xrotation Yrotation 
						End Site
						{
							OFFSET 0.0 0.0 0.0
						}
					}
				}
				JOINT Shoulder_L
				{
					OFFSET 12.9942 -0.242716 4.98039
					CHANNELS 6 Xposition Yposition Zposition Zrotation Xrotation Yrotation 
					JOINT UpperArm_L
					{
						OFFSET 5.34809 0.0 0.0
						CHANNELS 6 Xposition Yposition Zposition Zrotation Xrotation Yrotation 
						JOINT LowerArm_L
						{
							OFFSET 24.3286 1.87007e-05 0.0
							CHANNELS 6 Xposition Yposition Zposition Zrotation Xrotation Yrotation 
							JOINT Hand_L
							{
								OFFSET 22.2916 0.0 0.0
								CHANNELS 6 Xposition Yposition Zposition Zrotation Xrotation Yrotation 
								End Site
								{
									OFFSET 0.0 0.0 0.0
								}
							}
						}
					}
				}
				JOINT Shoulder_R
				{
					OFFSET 12.9945 -0.242716 -4.98039
					CHANNELS 6 Xposition Yposition Zposition Zrotation Xrotation Yrotation 
					JOINT UpperArm_R
					{
						OFFSET -5.34813 0.0 0.0
						CHANNELS 6 Xposition Yposition Zposition Zrotation Xrotation Yrotation 
						JOINT LowerArm_R
						{
							OFFSET -24.3289 0.000322201 0.0
							CHANNELS 6 Xposition Yposition Zposition Zrotation Xrotation Yrotation 
							JOINT Hand_R
							{
								OFFSET -22.2915 -0.000108084 0.0
								CHANNELS 6 Xposition Yposition Zposition Zrotation Xrotation Yrotation 
								End Site
								{
									OFFSET 0.0 0.0 0.0
								}
							}
						}
					}
				}
			}
		}
		JOINT UpperLeg_L
		{
			OFFSET -2.19248 -6.46944 0.0
			CHANNELS 6 Xposition Yposition Zposition Zrotation Xrotation Yrotation 
			JOINT LowerLeg_L
			{
				OFFSET 39.0811 0.0 -1.23785e-05
				CHANNELS 6 Xposition Yposition Zposition Zrotation Xrotation Yrotation 
				JOINT Foot_L
				{
					OFFSET 40.9854 0.0 -1.26872e-05
					CHANNELS 6 Xposition Yposition Zposition Zrotation Xrotation Yrotation 
					JOINT Toes_L
					{
						OFFSET 11.7543 0.0 0.0
						CHANNELS 6 Xposition Yposition Zposition Zrotation Xrotation Yrotation 
						End Site
						{
							OFFSET 0.0 0.0 0.0
						}
					}
				}
			}
		}
		JOINT UpperLeg_R
		{
			OFFSET -2.19251 6.46944 0.0
			CHANNELS 6 Xposition Yposition Zposition Zrotation Xrotation Yrotation 
			JOINT LowerLeg_R
			{
				OFFSET -39.0811 -0.00228153 -0.0401928
				CHANNELS 6 Xposition Yposition Zposition Zrotation Xrotation Yrotation 
				JOINT Foot_R
				{
					OFFSET -40.9854 0.0 0.0
					CHANNELS 6 Xposition Yposition Zposition Zrotation Xrotation Yrotation 
					JOINT Toes_R
					{
						OFFSET -11.7543 0.0 0.0
						CHANNELS 6 Xposition Yposition Zposition Zrotation Xrotation Yrotation 
						End Site
						{
							OFFSET 0.0 0.0 0.0
						}
					}
				}
			}
		}
	}
}
MOTION
Frames:	4
Frame Time:	0.0333333
0.000000 0.000000 0.000000 0.000000 0.000000 -0.000000 -193.969000 86.037500 198.226000 88.654400 83.320200 1.096890 15.735700 0.000005 -0.000001 90.722600 82.752200 -91.532000 8.984550 -0.406207 -0.000000 6.730230 0.189536 -1.628170 16.377300 -0.000001 -0.000001 -1.694350 -0.851966 0.824609 6.456720 -0.000001 -0.000000 -5.736140 -1.294920 5.110500 12.994200 -0.242716 4.980390 -91.182100 3.064410 -68.896900 5.348090 -0.000007 -0.000001 -60.207700 42.345300 -22.808000 24.328600 0.000019 0.000005 6.659900 -0.339195 -92.931400 22.291600 -0.000001 0.000005 13.380600 5.502160 -6.621020 12.994500 -0.242716 -4.980390 88.563300 7.154860 -78.612400 -5.348130 -0.000001 -0.000004 -64.125000 34.845200 20.008700 -24.328900 0.000322 -0.000009 -12.927600 -6.052980 -65.326100 -22.291500 -0.000108 -0.000004 10.506300 5.643390 -14.411500 -2.192480 -6.469440 -0.000000 174.017000 -11.353200 -23.244800 39.081100 -0.000007 -0.000012 -0.416067 0.351878 49.778900 40.985400 -0.000006 -0.000013 4.601940 -6.408880 -78.243600 11.754300 -0.000000 0.000003 -0.000118 -0.001183 -16.622800 -2.192510 6.469440 -0.000001 173.786000 8.637760 166.016000 -39.081100 -0.002282 -0.040193 0.110375 -0.029563 74.601500 -40.985400 0.000008 0.000006 4.718320 -0.747340 -35.898500 -11.754300 -0.000006 -0.000006 -0.029029 -0.212977 -25.295900
0.000000 0.000000 0.000000 0.000000 0.000000 -0.000000 -189.555000 87.468800 198.621000 82.554900 84.983900 8.176600 15.735700 0.000005 -0.000001 78.267400 82.385400 -78.595100 8.984550 -0.406207 -0.000000 7.144010 -3.084000 -0.462229 16.377300 -0.000001 -0.000001 -1.006150 -0.280773 0.521422 6.456720 -0.000001 -0.000000 -5.359950 1.742010 3.490200 12.994200 -0.242716 4.980390 -90.699800 1.905070 -69.830200 5.348090 -0.000007 -0.000001 -53.020100 42.887000 -35.063300 24.328600 0.000019 0.000005 1.601290 -0.287100 -100.239000 22.291600 -0.000001 0.000005 12.837900 5.506370 -6.790670 12.994500 -0.242716 -4.980390 88.933700 4.670130 -77.118700 -5.348130 -0.000001 -0.000004 -63.791200 38.734400 24.516900 -24.328900 0.000322 -0.000009 -11.554100 -4.324210 -69.754200 -22.291500 -0.000108 -0.000004 9.953140 5.641440 -14.246100 -2.192480 -6.469440 -0.000000 175.776000 -12.457600 -15.542300 39.081100 -0.000007 -0.000012 -0.321296 0.336146 43.706700 40.985400 -0.000006 -0.000013 4.899650 -3.513060 -78.720100 11.754300 -0.000000 0.000003 -0.000104 -0.001067 -16.618500 -2.192510 6.469440 -0.000001 175.521000 7.700100 160.828000 -39.081100 -0.002282 -0.040193 0.042707 -0.008357 78.131300 -40.985400 0.000008 0.000006 5.960190 -2.330080 -41.915700 -11.754300 -0.000006 -0.000006 -0.025621 -0.196642 -24.619500
0.000000 0.000000 0.000000 0.000000 0.000000 -0.000000 -185.541000 88.957000 199.169000 58.031400 85.846200 31.944800 15.735700 0.000005 -0.000001 68.365300 82.365500 -67.729500 8.984550 -0.406207 -0.000000 6.482920 -5.619720 1.589500 16.377300 -0.000001 -0.000001 -0.312496 -0.086641 0.502253 6.456720 -0.000001 -0.000000 -4.700280 4.185210 1.707010 12.994200 -0.242716 4.980390 -90.087900 0.251247 -70.746100 5.348090 -0.000007 -0.000001 -48.426900 41.257100 -44.384000 24.328600 0.000019 0.000005 0.222674 -0.061503 -105.340000 22.291600 -0.000001 0.000005 10.793500 5.502860 -6.644200 12.994500 -0.242716 -4.980390 89.470900 2.065150 -75.618400 -5.348130 -0.000001 -0.000004 -63.391400 40.875200 27.816300 -24.328900 0.000322 -0.000009 -11.140700 -3.154930 -74.384800 -22.291500 -0.000108 -0.000004 9.683930 5.637750 -13.940300 -2.192480 -6.469440 -0.000000 178.339000 -12.008600 -9.434610 39.081100 -0.000007 -0.000012 -0.267235 0.363603 36.315100 40.985400 -0.000006 -0.000013 4.470130 -1.869940 -77.934400 11.754300 -0.000000 0.000003 -0.000078 -0.000831 -16.609600 -2.192510 6.469440 -0.000001 178.590000 6.978830 154.704000 -39.081100 -0.002282 -0.040193 0.005289 -0.000531 77.077600 -40.985400 0.000008 0.000006 5.291870 -4.661380 -46.125100 -11.754300 -0.000006 -0.000006 -0.023168 -0.184241 -24.107000
0.000000 0.000000 0.000000 0.000000 0.000000 -0.000000 -181.634000 90.095600 199.846000 32.760900 85.158800 55.698300 15.735700 0.000005 -0.000001 60.527100 82.474000 -58.859800 8.984550 -0.406207 -0.000000 5.484800 -7.422150 3.690480 16.377300 -0.000001 -0.000001 0.271104 0.231808 0.676811 6.456720 -0.000001 -0.000000 -4.081990 5.846280 1.053300 12.994200 -0.242716 4.980390 -89.294500 -2.056060 -71.056500 5.348090 -0.000007 -0.000001 -46.294300 39.221000 -51.240700 24.328600 0.000019 0.000005 1.888760 -0.628801 -108.399000 22.291600 -0.000001 0.000005 9.687000 5.488720 -6.084150 12.994500 -0.242716 -4.980390 90.094800 -0.342913 -74.576800 -5.348130 -0.000001 -0.000004 -63.288300 40.999100 30.039500 -24.328900 0.000322 -0.000009 -10.994700 -2.277120 -78.441000 -22.291500 -0.000108 -0.000004 9.260850 5.632980 -13.562500 -2.192480 -6.469440 -0.000000 -179.010000 -11.053800 -4.013840 39.081100 -0.000007 -0.000012 -0.228923 0.424954 28.311700 40.985400 -0.000006 -0.000013 3.612730 -1.252470 -76.642100 11.754300 -0.000000 0.000003 -0.000022 -0.000275 -16.588300 -2.192510 6.469440 -0.000001 -178.046000 5.807130 149.308000 -39.081100 -0.002282 -0.040193 -0.023620 0.008665 72.023500 -40.985400 0.000008 0.000006 5.133630 -6.396260 -50.356900 -11.754300 -0.000006 -0.000006 -0.022683 -0.181721 -24.003000
